<?xml version="1.0" encoding="utf-8"?>
<!-- Generator: Adobe Illustrator 17.0.1, SVG Export Plug-In . SVG Version: 6.00 Build 0)  -->
<!DOCTYPE svg PUBLIC "-//W3C//DTD SVG 1.1//EN" "http://www.w3.org/Graphics/SVG/1.1/DTD/svg11.dtd">
<svg version="1.1" id="Capa_1" xmlns="http://www.w3.org/2000/svg" xmlns:xlink="http://www.w3.org/1999/xlink" x="0px" y="0px"
	 width="595.28px" height="841.89px" viewBox="0 0 595.28 841.89" enable-background="new 0 0 595.28 841.89" xml:space="preserve">
<g>
	<g>
		<path d="M18.32,11.137l1.134-1.134c2.061-2.061,2.061-5.396,0-7.457c-2.061-2.061-5.396-2.061-7.457,0
			c-0.44,0.44-9.053,9.053-9.452,9.452c-2.061,2.061-2.061,5.396,0,7.457c2.061,2.061,5.396,2.061,7.457,0l1.134-1.134
			c0.907,1.598,2.624,2.679,4.589,2.679c2.907,0,5.273-2.365,5.273-5.273C20.999,13.761,19.918,12.044,18.32,11.137z M10.453,15.726
			c0,0.494,0.068,0.971,0.196,1.425l-1.475,1.475c-1.603,1.603-4.197,1.603-5.8,0c-1.603-1.603-1.603-4.197,0-5.8L7.65,8.55
			l3.926,3.926C10.873,13.373,10.453,14.501,10.453,15.726z M15.14,19.785c-1.985-0.285-3.515-1.997-3.515-4.059
			s1.53-3.774,3.515-4.059V19.785z M12.397,11.64L8.479,7.722l4.347-4.347c1.603-1.603,4.197-1.603,5.8,0
			c1.603,1.603,1.603,4.197,0,5.8l-1.475,1.475c-0.453-0.127-0.931-0.196-1.425-0.196C14.465,10.453,13.306,10.899,12.397,11.64z
			 M16.312,19.785v-8.118c1.985,0.285,3.515,1.997,3.515,4.059C19.827,17.788,18.297,19.5,16.312,19.785z"/>
	</g>
</g>
</svg>
